<svg xmlns="http://www.w3.org/2000/svg" width="164" height="30" viewBox="0 0 164 30" fill="none"><path d="M2.64 13.96C4.14 14.08 8.28 14.86 12.87 16.81C16.26 11.56 19.23 6.1 21.54 1.09L21.57 1.06H21.63V0.999999C21.93 0.729998 22.86 1.42 22.65 1.75L22.59 1.84H22.56C22.53 2.38 22.5 2.95 22.5 3.49C22.5 7.66 23.37 11.92 24.63 18.4C27.3 18.1 31.05 17.56 31.53 17.53C31.65 17.41 31.38 18.1 31.05 18.34C30.39 18.79 27.06 19.15 24.81 19.33C25.53 22.66 26.34 25.66 27.24 29.02C27.3 29.23 26.58 29.89 26.28 29.41C23.85 25.18 20.4 21.52 16.68 19.54L16.59 19.51C15.12 19.48 13.8 19.42 12.54 19.33C7.17 27.04 4.65 29.77 2.28 29.05C2.04 28.81 2.01 28.51 2.31 28.54C4.83 28.75 8.1 23.86 11.25 19.24C4.56 18.61 1.32 17.17 0.51 15.97C0.27 15.64 0.18 15.31 0.18 15.01C0.18 14.5 0.48 14.08 1.05 13.99C1.5 13.9 2.01 13.9 2.64 13.96ZM16.59 18.64C18.21 18.7 20.7 18.55 23.52 18.49H23.55C22.5 13.87 21.33 7 21.39 3.76C19.26 8.59 17.1 11.98 14.25 16.87L13.95 17.29C14.82 17.71 15.72 18.16 16.59 18.64ZM1.32 15.52C1.89 16.54 6.87 17.95 11.82 18.37L12.48 17.38C7.92 15.34 4.38 14.86 3.06 14.71C2.67 14.65 0.9 14.59 1.32 15.52ZM23.31 19.42C21.3 19.45 19.5 19.57 18.15 19.57C20.55 21.1 22.86 22.99 24.78 25.33L25.5 26.2C24.87 23.89 24.27 21.67 23.76 19.42H23.31ZM14.82 18.49L13.56 17.86C13.44 18.07 13.29 18.28 13.14 18.46C13.71 18.49 14.28 18.49 14.82 18.49ZM31.9378 22.18C31.7278 22.03 31.5478 21.82 31.5478 21.79C31.4578 21.7 31.4578 21.64 31.4578 21.61C31.3378 21.4 31.2778 21.01 31.1878 20.53L30.9478 18.61C30.8878 17.08 30.8278 15.16 30.8278 13.21V12.25C30.8278 8.68 30.9778 5.14 31.3678 4.06C31.4578 3.91 31.7578 3.91 32.0578 4.09C32.2978 4.27 32.4778 4.57 32.3878 4.75C32.0278 5.8 31.9078 9.76 31.9078 13.69C31.9078 15.64 31.9378 17.56 32.0878 19.09C32.5978 17.86 34.5178 15.37 35.8378 15.61C36.1078 15.64 36.4678 15.79 36.7078 16.03L36.8578 16.15C37.4878 16.72 37.6978 17.44 37.6978 18.13C37.6978 18.58 37.6078 19 37.4878 19.36L37.2778 19.84C38.7478 19.6 41.1478 18.25 42.1978 17.32C42.4978 17.02 42.3178 17.95 42.0478 18.34C40.9378 19.84 38.8078 20.98 36.1678 21.01H35.9278L35.8078 21.04C35.3278 21.13 33.5878 21.04 32.9278 20.59L32.8678 20.56L32.7778 20.86L32.5978 21.7C32.6278 21.91 32.5678 22.06 32.5378 22.15C32.5078 22.15 32.4778 22.21 32.4178 22.24C32.3878 22.24 32.2378 22.33 31.9378 22.18ZM33.1078 19.96C33.4078 20.08 33.7078 20.14 34.0078 20.14C35.3878 20.14 36.5878 18.91 36.5878 17.5C36.5878 17.08 36.4978 16.78 36.3178 16.6L36.2278 16.48H36.1678C35.1478 16.81 34.3678 18.01 33.0478 19.93L33.1078 19.96ZM50.2755 27.88C49.9455 27.79 49.6155 27.55 49.4055 27.31C48.9855 26.83 48.7455 26.14 48.6255 25.48C48.4755 24.76 48.3555 23.83 48.3255 22.81C48.2655 21.97 48.2355 21.04 48.2355 20.08C48.2355 19.3 48.2655 18.46 48.2655 17.65V16.57C47.6355 18.25 46.4055 20.98 44.3055 21.13C43.7355 21.13 43.1655 21.04 42.4755 20.53C41.7555 19.96 41.4555 19.3 41.4555 18.67C41.4555 18.1 41.6955 17.53 42.0855 17.14C42.6855 16.57 43.5555 16.15 44.8455 16.15C45.4455 16.15 46.0455 16.21 46.8555 16.42L47.0955 16.51C47.7255 14.86 48.1155 13.33 48.4755 11.74L48.5355 10.66C48.7455 8.11 49.3155 3.82 49.3455 3.76C49.4355 3.31 50.4255 3.85 50.4855 4.3C50.4555 5.65 50.1255 9.19 49.9755 10.6C49.9155 11.2 49.6755 12.04 49.6455 12.55C49.5255 14.05 49.4655 15.22 49.4355 16.36C49.3755 17.77 49.3455 19.18 49.3455 20.53C49.3455 21.52 49.3455 22.45 49.4355 23.32C49.4655 24.31 49.5555 25.21 49.7055 25.9C49.8855 26.53 49.9755 26.89 50.0655 27.04L50.1255 27.1H50.1555C50.3355 27.19 50.5755 27.4 50.6355 27.58C50.7255 27.82 50.6055 27.94 50.2755 27.88ZM43.6755 20.32C45.1455 20.17 46.1055 18.52 46.7355 17.26L46.7655 17.2C46.3155 17.14 45.8955 17.11 45.5355 17.11C44.2455 17.11 43.5255 17.44 43.0755 17.92C42.6855 18.34 42.5355 18.79 42.5355 19.18C42.5355 19.57 42.6855 19.9 42.8955 20.05C43.1055 20.23 43.3455 20.32 43.6755 20.32ZM54.4952 21.31C53.5052 21.31 52.4852 20.53 52.1552 19.51C52.0352 19.15 51.9752 18.76 51.9752 18.37C51.9752 17.89 52.0652 17.38 52.3052 16.96C52.4552 16.66 52.6352 16.39 52.9052 16.3C53.1452 16.24 53.4752 16.39 53.7152 16.66C53.9552 16.9 53.8952 17.08 53.7452 17.17C53.3252 17.44 53.0552 18.31 53.0552 19.09C53.0552 19.63 53.1752 20.11 53.5052 20.32C54.7352 21.16 56.7452 17.98 56.9852 16.9C57.0752 16.48 58.1252 17.02 58.0652 17.47C58.0352 17.68 58.0052 18.16 58.0052 18.7C58.1252 19.42 58.3352 20.14 59.1752 20.23C61.2452 20.14 63.0452 18.55 64.0352 17.56C64.3052 17.2 64.2752 18.1 63.9152 18.67C63.3152 19.6 61.7852 21.22 59.7152 21.1C58.5452 21.1 57.6152 20.38 57.1952 19.39C56.5952 20.26 55.7252 21.31 54.4952 21.31ZM63.6445 21.1C63.5245 20.83 63.4645 20.05 63.8845 16.27C63.8845 16.06 64.1845 16.06 64.4845 16.21C64.7545 16.36 64.9345 16.66 64.9345 16.84L64.9045 18.01C65.6545 17.05 67.8745 15.31 69.5245 15.58C70.2145 15.7 70.6345 16.33 70.4245 16.57C70.0045 17.05 69.5845 16.87 69.6145 16.63L69.6445 16.39C68.1445 16.36 65.6545 18.19 64.9345 20.26C64.8445 20.5 64.8445 20.68 64.7245 21.55C64.7545 21.94 63.7645 21.55 63.6445 21.1ZM94.0697 28.42C93.8297 27.1 93.7397 24.82 93.7397 22.09C93.7397 20.86 93.7697 19.54 93.7997 18.19C92.6897 17.41 91.7597 16.6 91.0097 15.82C90.8897 15.49 91.2797 15.13 91.5797 15.37L91.9397 15.73C92.3597 16 93.0197 16.36 93.8297 16.66C94.0097 11.98 94.3697 6.94 94.8797 3.22C90.6797 3.79 86.4197 5.53 84.0797 9.49C83.4797 10.72 83.2097 11.89 83.2097 13C83.2097 16.54 85.9697 19.18 89.5997 19.03C90.0497 19 90.5897 18.94 90.9797 18.79C91.2497 18.7 91.5197 18.88 91.2197 19.09C91.0697 19.18 90.1397 19.45 88.9097 19.45C87.1397 19.45 84.7397 18.91 83.2697 16.63C82.5797 15.55 82.2197 14.2 82.2197 12.76C82.2197 11.47 82.5197 10.09 83.1497 8.83C85.3397 4.63 90.8597 2.59 95.0297 2.23C95.1497 1.57 95.2397 0.969999 95.3597 0.429999C95.5997 0.0999994 96.7097 0.37 96.6197 0.849999C96.5297 1.24 96.4397 1.69 96.3797 2.17C100.43 2.02 106.13 3.34 108.35 7.3C108.98 8.44 109.28 9.55 109.28 10.6C109.28 14.83 104.51 18.1 98.5697 18.43C97.2797 18.43 96.0797 18.28 94.9997 17.98C98.0297 19.99 102.29 22.09 105.92 22.09C108.98 22.09 111.83 20.56 114.44 18.79C115.73 17.92 114.38 19.57 113.81 20.05C111.71 21.85 108.95 23.17 106.46 23.17C102.83 23.17 98.4197 21.25 94.9697 19C94.8797 20.89 94.8497 22.69 94.8497 24.37C94.8497 26.05 94.8797 27.61 94.9697 28.9L95.0597 29.05C95.0597 29.2 94.9997 29.29 94.8197 29.32C94.4897 29.29 94.2797 28.69 94.0697 28.42ZM96.9197 3.04L96.2297 3.1C95.7197 6.76 95.2697 11.98 95.0297 17.05C96.0797 17.35 97.3097 17.56 98.6897 17.53C104.12 17.02 108.29 13.87 108.29 10.24C108.29 9.28 107.99 8.29 107.36 7.3C105.26 4.24 101.6 3.01 97.8197 3.01C97.5197 3.01 97.2197 3.01 96.9197 3.04ZM114.357 20.83C113.757 20.38 113.457 19.81 113.457 19.18C113.457 18.52 113.787 17.86 114.537 17.35C115.347 16.81 116.367 16.54 117.417 16.54C118.257 16.54 119.097 16.72 119.847 17.05H119.877L120.387 16.36C120.567 16.03 121.587 16.69 121.377 17.05C121.227 17.5 120.957 18.04 120.897 18.61C120.867 19.12 121.017 19.72 121.557 19.87C123.087 20.17 125.667 18.64 126.747 17.44C127.257 16.93 127.707 17.68 126.057 19.33C125.307 20.08 123.237 21.04 121.977 20.74C120.987 20.5 120.237 19.93 119.847 18.85C119.007 19.6 117.027 21.13 115.437 21.13C115.047 21.13 114.687 21.04 114.357 20.83ZM114.897 20.17C116.337 19.99 118.287 18.76 119.337 17.65C119.037 17.56 118.617 17.5 118.167 17.5C116.667 17.5 114.687 18.07 114.357 19.45C114.267 19.81 114.447 20.14 114.897 20.17ZM126.369 21.43C126.009 21.25 125.739 20.5 126.399 20.65C126.669 20.71 126.999 20.74 127.389 20.74C128.349 20.74 129.549 20.59 130.329 20.41C129.579 20.02 128.439 19.45 127.839 19.12C127.059 18.67 126.219 18.37 126.099 17.47C125.859 15.88 129.129 14.92 130.659 14.71C131.139 14.65 131.739 15.22 131.499 15.52C130.389 15.91 127.659 16.42 127.329 17.2C127.149 17.62 127.839 17.92 128.439 18.28C129.579 18.91 130.479 19.36 131.079 19.84C131.739 20.41 131.169 21.25 130.389 21.46C129.849 21.61 129.069 21.7 128.289 21.7C127.539 21.7 126.819 21.61 126.369 21.43ZM134.489 21.43C134.459 21.37 134.459 21.01 134.459 20.44V16.18C134.459 12.04 134.609 8.35 134.819 4.51C134.819 4.09 135.989 4.45 135.989 4.9C135.599 8.74 135.539 12.64 135.479 16.75V19.42C136.409 18.37 138.959 15.97 140.669 16.51C141.089 16.63 141.539 16.99 141.659 17.38C141.749 18.1 141.509 18.94 141.719 19.81C142.019 19.96 142.349 20.02 142.679 20.02C144.239 20.02 147.479 18.76 148.439 17.47C148.709 17.14 148.559 18.1 148.109 18.76C147.449 19.75 145.199 20.89 143.279 20.89C142.619 20.89 141.959 20.74 141.269 20.29C140.579 19.78 140.429 19 140.429 18.37C140.429 17.95 140.489 17.59 140.489 17.38C138.779 17.29 135.629 20.47 135.509 21.85C135.539 22.3 134.609 21.91 134.489 21.43ZM147.909 20.68C147.459 20.2 147.249 19.18 147.249 18.19C147.249 17.26 147.429 16.33 147.759 15.82C147.789 15.67 148.089 15.64 148.449 15.73C148.779 15.85 148.959 16.09 148.929 16.24C148.689 16.48 148.089 19.87 148.539 20.26C148.779 20.44 149.079 20.53 149.409 20.53C151.269 20.53 154.449 18.13 155.349 17.23C155.469 17.11 155.769 17.29 155.409 17.95C154.839 19 152.109 21.37 150.039 21.46C149.289 21.49 148.479 21.31 147.909 20.68ZM148.539 13.72C148.179 13.6 147.999 13.33 148.149 13.21C148.209 13.12 148.419 12.52 148.479 12.37L148.539 11.92C148.539 11.74 148.869 11.68 149.169 11.8C149.559 11.89 149.799 12.13 149.739 12.28C149.739 12.4 149.739 12.61 149.649 12.79C149.589 12.94 149.349 13.6 149.259 13.75C149.169 13.87 148.809 13.87 148.539 13.72ZM163.215 27.88C162.885 27.79 162.555 27.55 162.345 27.31C161.925 26.83 161.685 26.14 161.565 25.48C161.415 24.76 161.295 23.83 161.265 22.81C161.205 21.97 161.175 21.04 161.175 20.08C161.175 19.3 161.205 18.46 161.205 17.65V16.57C160.575 18.25 159.345 20.98 157.245 21.13C156.675 21.13 156.105 21.04 155.415 20.53C154.695 19.96 154.395 19.3 154.395 18.67C154.395 18.1 154.635 17.53 155.025 17.14C155.625 16.57 156.495 16.15 157.785 16.15C158.385 16.15 158.985 16.21 159.795 16.42L160.035 16.51C160.665 14.86 161.055 13.33 161.415 11.74L161.475 10.66C161.685 8.11 162.255 3.82 162.285 3.76C162.375 3.31 163.365 3.85 163.425 4.3C163.395 5.65 163.065 9.19 162.915 10.6C162.855 11.2 162.615 12.04 162.585 12.55C162.465 14.05 162.405 15.22 162.375 16.36C162.315 17.77 162.285 19.18 162.285 20.53C162.285 21.52 162.285 22.45 162.375 23.32C162.405 24.31 162.495 25.21 162.645 25.9C162.825 26.53 162.915 26.89 163.005 27.04L163.065 27.1H163.095C163.275 27.19 163.515 27.4 163.575 27.58C163.665 27.82 163.545 27.94 163.215 27.88ZM156.615 20.32C158.085 20.17 159.045 18.52 159.675 17.26L159.705 17.2C159.255 17.14 158.835 17.11 158.475 17.11C157.185 17.11 156.465 17.44 156.015 17.92C155.625 18.34 155.475 18.79 155.475 19.18C155.475 19.57 155.625 19.9 155.835 20.05C156.045 20.23 156.285 20.32 156.615 20.32Z" fill="#0B0C1E"></path></svg>