<svg xmlns="http://www.w3.org/2000/svg" width="120" height="79" viewBox="0 0 120 79" fill="none"><path d="M108.281 0H70.5766C69.2824 0 68.2329 1.05286 68.2329 2.35119C68.2329 3.64952 69.2824 4.70238 70.5766 4.70238H108.281C112.158 4.70238 115.312 7.86661 115.312 11.756V67.244C115.312 71.1334 112.158 74.2976 108.281 74.2976H11.7188C7.84172 74.2976 4.6875 71.1334 4.6875 67.244V11.756C4.6875 7.86661 7.84172 4.70238 11.7188 4.70238H49.4829C50.7771 4.70238 51.8266 3.64952 51.8266 2.35119C51.8266 1.05286 50.7771 0 49.4829 0H11.7188C5.25703 0 0 5.27372 0 11.756V67.244C0 73.7263 5.25703 79 11.7188 79H108.281C114.743 79 120 73.7263 120 67.244V11.756C120 5.27372 114.743 0 108.281 0Z" fill="white"></path><path d="M12.6562 10.3457C11.362 10.3457 10.3125 11.3986 10.3125 12.6969V66.304C10.3125 67.6024 11.362 68.6552 12.6562 68.6552H107.344C108.638 68.6552 109.688 67.6024 109.688 66.304V12.6969C109.688 11.3986 108.638 10.3457 107.344 10.3457H12.6562ZM15 15.0481H41.8751V63.9528H15V15.0481ZM46.5626 15.0481H73.4374V63.9528H46.5626V15.0481ZM105 63.9528H99.9809C99.8423 61.7679 98.8741 59.8068 97.3891 58.3817C98.996 56.8396 99.9998 54.6701 99.9998 52.2686C99.9998 47.6013 96.2149 43.8043 91.5623 43.8043C87.5395 43.8043 84.0574 46.6751 83.2831 50.6303C83.0337 51.9046 83.861 53.1404 85.1311 53.3906C86.4033 53.6405 87.6333 52.8106 87.8827 51.5367C88.2265 49.7808 89.7738 48.5065 91.5623 48.5065C93.63 48.5065 95.3123 50.1941 95.3123 52.2684C95.3123 54.3426 93.63 56.0303 91.5623 56.0303C90.2681 56.0303 89.2186 57.0831 89.2186 58.3815C89.2186 59.6798 90.2681 60.7327 91.5623 60.7327C93.4462 60.7327 95.0055 62.1349 95.2688 63.9526H78.1247V15.0481H91.3296C85.2321 23.7291 84.4816 24.774 84.4523 24.8147C83.936 25.5302 83.8627 26.4758 84.2632 27.2628C84.6635 28.0497 85.4698 28.5449 86.3505 28.5449H97.6559C98.9501 28.5449 99.9996 27.492 99.9996 26.1937C99.9996 24.8953 98.9501 23.8425 97.6559 23.8425H90.8829C92.0557 22.1764 96.7716 15.445 97.0235 15.0481H105V63.9528Z" fill="white"></path><path d="M28.4355 26.1797C23.783 26.1797 19.998 29.9766 19.998 34.644V44.4202C19.998 49.0876 23.783 52.8845 28.4355 52.8845C33.0881 52.8845 36.873 49.0876 36.873 44.4202V34.644C36.873 29.9766 33.0881 26.1797 28.4355 26.1797ZM32.1855 44.4202C32.1855 46.4944 30.5032 48.1821 28.4355 48.1821C26.3679 48.1821 24.6855 46.4944 24.6855 44.4202V34.644C24.6855 32.5698 26.3679 30.8821 28.4355 30.8821C30.5032 30.8821 32.1855 32.5698 32.1855 34.644V44.4202Z" fill="white"></path><path d="M60 26.1797C55.3474 26.1797 51.5625 29.9766 51.5625 34.644V44.4202C51.5625 49.0876 55.3474 52.8845 60 52.8845C64.6526 52.8845 68.4375 49.0876 68.4375 44.4202V34.644C68.4375 29.9766 64.6526 26.1797 60 26.1797ZM63.75 44.4202C63.75 46.4944 62.0677 48.1821 60 48.1821C57.9323 48.1821 56.25 46.4944 56.25 44.4202V34.644C56.25 32.5698 57.9323 30.8821 60 30.8821C62.0677 30.8821 63.75 32.5698 63.75 34.644V44.4202Z" fill="white"></path><path d="M60.0293 4.70238C60.6457 4.70238 61.2504 4.4508 61.6863 4.01325C62.122 3.57616 62.373 2.96955 62.373 2.35119C62.373 1.73283 62.1223 1.12622 61.6863 0.688899C61.248 0.251577 60.6457 0 60.0293 0C59.4129 0 58.8082 0.251342 58.3723 0.688899C57.934 1.12622 57.6855 1.73283 57.6855 2.35119C57.6855 2.96955 57.934 3.57616 58.3723 4.01325C58.8082 4.4508 59.4105 4.70238 60.0293 4.70238Z" fill="white"></path></svg>