<svg xmlns="http://www.w3.org/2000/svg" width="36" height="92" viewBox="0 0 36 92" fill="none"><path d="M0.00275558 1.42636C0.00275555 2.21411 0.641357 2.85271 1.42911 2.85271C2.21687 2.85271 2.85547 2.21411 2.85547 1.42636C2.85547 0.638602 2.21687 -2.79142e-08 1.42911 -6.2348e-08C0.641357 -9.67819e-08 0.00275561 0.638601 0.00275558 1.42636Z" fill="white"></path><path d="M16.4051 1.42636C16.4051 2.21411 17.0437 2.85271 17.8315 2.85271C18.6192 2.85271 19.2578 2.21411 19.2578 1.42636C19.2578 0.638602 18.6192 -2.79142e-08 17.8315 -6.2348e-08C17.0437 -9.67819e-08 16.4051 0.638601 16.4051 1.42636Z" fill="white"></path><path d="M32.8074 1.42636C32.8074 2.21411 33.446 2.85271 34.2338 2.85271C35.0216 2.85271 35.6602 2.21411 35.6602 1.42636C35.6602 0.638602 35.0216 -2.79142e-08 34.2338 -6.2348e-08C33.446 -9.67819e-08 32.8074 0.638601 32.8074 1.42636Z" fill="white"></path><path d="M0.000802455 19.2564C0.00080242 20.0442 0.639404 20.6828 1.42716 20.6828C2.21491 20.6828 2.85352 20.0442 2.85352 19.2564C2.85352 18.4687 2.21491 17.8301 1.42716 17.8301C0.639404 17.8301 0.000802489 18.4687 0.000802455 19.2564Z" fill="white"></path><path d="M16.4051 19.2564C16.4051 20.0442 17.0437 20.6828 17.8315 20.6828C18.6192 20.6828 19.2578 20.0442 19.2578 19.2564C19.2578 18.4687 18.6192 17.8301 17.8315 17.8301C17.0437 17.8301 16.4051 18.4687 16.4051 19.2564Z" fill="white"></path><path d="M32.8074 19.2564C32.8074 20.0442 33.446 20.6828 34.2338 20.6828C35.0216 20.6828 35.6602 20.0442 35.6602 19.2564C35.6602 18.4687 35.0216 17.8301 34.2338 17.8301C33.446 17.8301 32.8074 18.4687 32.8074 19.2564Z" fill="white"></path><path d="M0.000802455 37.0846C0.00080242 37.8723 0.639404 38.5109 1.42716 38.5109C2.21491 38.5109 2.85352 37.8723 2.85352 37.0846C2.85352 36.2968 2.21491 35.6582 1.42716 35.6582C0.639404 35.6582 0.000802489 36.2968 0.000802455 37.0846Z" fill="white"></path><path d="M16.4051 37.0846C16.4051 37.8723 17.0437 38.5109 17.8315 38.5109C18.6192 38.5109 19.2578 37.8723 19.2578 37.0846C19.2578 36.2968 18.6192 35.6582 17.8315 35.6582C17.0437 35.6582 16.4051 36.2968 16.4051 37.0846Z" fill="white"></path><path d="M32.8074 37.0846C32.8074 37.8723 33.446 38.5109 34.2338 38.5109C35.0216 38.5109 35.6602 37.8723 35.6602 37.0846C35.6602 36.2968 35.0216 35.6582 34.2338 35.6582C33.446 35.6582 32.8074 36.2968 32.8074 37.0846Z" fill="white"></path><path d="M0.00275558 54.9146C0.00275555 55.7024 0.641357 56.341 1.42911 56.341C2.21687 56.341 2.85547 55.7024 2.85547 54.9146C2.85547 54.1269 2.21687 53.4883 1.42911 53.4883C0.641357 53.4883 0.00275561 54.1269 0.00275558 54.9146Z" fill="white"></path><path d="M16.4051 54.9146C16.4051 55.7024 17.0437 56.341 17.8315 56.341C18.6192 56.341 19.2578 55.7024 19.2578 54.9146C19.2578 54.1269 18.6192 53.4883 17.8315 53.4883C17.0437 53.4883 16.4051 54.1269 16.4051 54.9146Z" fill="white"></path><path d="M32.8074 54.9146C32.8074 55.7024 33.446 56.341 34.2338 56.341C35.0216 56.341 35.6602 55.7024 35.6602 54.9146C35.6602 54.1269 35.0216 53.4883 34.2338 53.4883C33.446 53.4883 32.8074 54.1269 32.8074 54.9146Z" fill="white"></path><path d="M0.000802455 72.7447C0.00080242 73.5325 0.639404 74.1711 1.42716 74.1711C2.21491 74.1711 2.85352 73.5325 2.85352 72.7447C2.85352 71.957 2.21491 71.3184 1.42716 71.3184C0.639404 71.3184 0.000802489 71.957 0.000802455 72.7447Z" fill="white"></path><path d="M16.4051 72.7447C16.4051 73.5325 17.0437 74.1711 17.8315 74.1711C18.6192 74.1711 19.2578 73.5325 19.2578 72.7447C19.2578 71.957 18.6192 71.3184 17.8315 71.3184C17.0437 71.3184 16.4051 71.957 16.4051 72.7447Z" fill="white"></path><path d="M32.8074 72.7447C32.8074 73.5325 33.446 74.1711 34.2338 74.1711C35.0216 74.1711 35.6602 73.5325 35.6602 72.7447C35.6602 71.957 35.0216 71.3184 34.2338 71.3184C33.446 71.3184 32.8074 71.957 32.8074 72.7447Z" fill="white"></path><path d="M0.00275558 90.5738C0.00275555 91.3616 0.641357 92.0002 1.42911 92.0002C2.21687 92.0002 2.85547 91.3616 2.85547 90.5738C2.85547 89.7861 2.21687 89.1475 1.42911 89.1475C0.641357 89.1475 0.00275561 89.7861 0.00275558 90.5738Z" fill="white"></path><path d="M16.4051 90.5738C16.4051 91.3616 17.0437 92.0002 17.8315 92.0002C18.6192 92.0002 19.2578 91.3616 19.2578 90.5738C19.2578 89.7861 18.6192 89.1475 17.8315 89.1475C17.0437 89.1475 16.4051 89.7861 16.4051 90.5738Z" fill="white"></path><path d="M32.8074 90.5738C32.8074 91.3616 33.446 92.0002 34.2338 92.0002C35.0216 92.0002 35.6602 91.3616 35.6602 90.5738C35.6602 89.7861 35.0216 89.1475 34.2338 89.1475C33.446 89.1475 32.8074 89.7861 32.8074 90.5738Z" fill="white"></path></svg>