<svg xmlns="http://www.w3.org/2000/svg" width="35" height="33" viewBox="0 0 35 33" fill="none"><path d="M12.0646 23.5259C11.1311 23.5285 10.2214 23.8198 9.46002 24.3598C8.69865 24.8997 8.12293 25.662 7.8118 26.542H1.50807C1.1081 26.542 0.724521 26.7009 0.441703 26.9837C0.158886 27.2666 0 27.6501 0 28.0501C0 28.4501 0.158886 28.8337 0.441703 29.1165C0.724521 29.3993 1.1081 29.5582 1.50807 29.5582H7.8118C8.08846 30.3407 8.57504 31.032 9.21829 31.5565C9.86154 32.081 10.6367 32.4184 11.4589 32.5318C12.281 32.6453 13.1186 32.5304 13.8798 32.1997C14.6411 31.869 15.2967 31.3353 15.7749 30.6569C16.2532 29.9786 16.5356 29.1818 16.5913 28.3537C16.647 27.5256 16.4738 26.6981 16.0907 25.9618C15.7076 25.2256 15.1294 24.6089 14.4192 24.1792C13.7091 23.7496 12.8945 23.5236 12.0646 23.5259Z" fill="white"></path><path d="M22.621 20.8111C23.451 20.8134 24.2656 20.5874 24.9757 20.1578C25.6858 19.7281 26.2641 19.1114 26.6472 18.3751C27.0303 17.6389 27.2034 16.8114 27.1477 15.9833C27.092 15.1552 26.8096 14.3584 26.3314 13.68C25.8532 13.0017 25.1976 12.468 24.4363 12.1373C23.6751 11.8066 22.8375 11.6917 22.0153 11.8052C21.1932 11.9186 20.418 12.256 19.7748 12.7805C19.1315 13.305 18.6449 13.9963 18.3683 14.7788H1.50807C1.1081 14.7788 0.724521 14.9377 0.441703 15.2205C0.158886 15.5033 0 15.8869 0 16.2869C0 16.6869 0.158886 17.0704 0.441703 17.3533C0.724521 17.6361 1.1081 17.795 1.50807 17.795H18.3683C18.6794 18.675 19.2551 19.4372 20.0165 19.9772C20.7779 20.5172 21.6876 20.8085 22.621 20.8111Z" fill="white"></path><path d="M1.50807 6.03228H3.28759C3.64334 7.03849 4.34334 7.88654 5.26388 8.42654C6.18443 8.96655 7.26623 9.16374 8.3181 8.98327C9.36998 8.80279 10.3242 8.25628 11.0121 7.44031C11.7 6.62434 12.0773 5.59146 12.0773 4.52422C12.0773 3.45697 11.7 2.42409 11.0121 1.60812C10.3242 0.792154 9.36998 0.245637 8.3181 0.0651645C7.26623 -0.115308 6.18443 0.0818841 5.26388 0.621889C4.34334 1.16189 3.64334 2.00994 3.28759 3.01615H1.50807C1.1081 3.01615 0.724521 3.17503 0.441703 3.45785C0.158886 3.74067 0 4.12425 0 4.52422C0 4.92418 0.158886 5.30776 0.441703 5.59058C0.724521 5.8734 1.1081 6.03228 1.50807 6.03228Z" fill="white"></path><path d="M15.3948 6.03225H33.4916C33.8916 6.03225 34.2752 5.87336 34.558 5.59055C34.8408 5.30773 34.9997 4.92415 34.9997 4.52418C34.9997 4.12422 34.8408 3.74063 34.558 3.45782C34.2752 3.175 33.8916 3.01611 33.4916 3.01611H15.3948C14.9948 3.01611 14.6112 3.175 14.3284 3.45782C14.0456 3.74063 13.8867 4.12422 13.8867 4.52418C13.8867 4.92415 14.0456 5.30773 14.3284 5.59055C14.6112 5.87336 14.9948 6.03225 15.3948 6.03225Z" fill="white"></path><path d="M33.4918 26.542H19.9192C19.5192 26.542 19.1357 26.7009 18.8528 26.9837C18.57 27.2665 18.4111 27.6501 18.4111 28.0501C18.4111 28.45 18.57 28.8336 18.8528 29.1164C19.1357 29.3992 19.5192 29.5581 19.9192 29.5581H33.4918C33.8918 29.5581 34.2754 29.3992 34.5582 29.1164C34.841 28.8336 34.9999 28.45 34.9999 28.0501C34.9999 27.6501 34.841 27.2665 34.5582 26.9837C34.2754 26.7009 33.8918 26.542 33.4918 26.542Z" fill="white"></path><path d="M33.492 14.7793H30.4758C30.0759 14.7793 29.6923 14.9382 29.4095 15.221C29.1267 15.5038 28.9678 15.8874 28.9678 16.2874C28.9678 16.6873 29.1267 17.0709 29.4095 17.3537C29.6923 17.6365 30.0759 17.7954 30.4758 17.7954H33.492C33.8919 17.7954 34.2755 17.6365 34.5583 17.3537C34.8412 17.0709 35 16.6873 35 16.2874C35 15.8874 34.8412 15.5038 34.5583 15.221C34.2755 14.9382 33.8919 14.7793 33.492 14.7793Z" fill="white"></path></svg>