<svg xmlns="http://www.w3.org/2000/svg" width="40" height="41" viewBox="0 0 40 41" fill="none"><path d="M30.9677 30.401C32.0348 30.401 32.9032 29.5303 32.9032 28.4605C32.9032 27.3906 32.0348 26.52 30.9677 26.52C29.9006 26.52 29.0322 27.3906 29.0322 28.4605C29.0322 29.5303 29.9006 30.401 30.9677 30.401ZM30.9677 27.8137C31.3232 27.8137 31.6129 28.1034 31.6129 28.4605C31.6129 28.8175 31.3232 29.1073 30.9677 29.1073C30.6122 29.1073 30.3225 28.8175 30.3225 28.4605C30.3225 28.1034 30.6122 27.8137 30.9677 27.8137Z" fill="white"></path><path d="M37.5226 25.7294C37.3271 25.2598 37.431 24.7261 37.7864 24.3691L38.7252 23.4273L35.9871 20.6822L35.0471 21.624C34.6916 21.981 34.1587 22.0845 33.6658 21.8775C33.2026 21.6861 32.9032 21.2372 32.9032 20.7339V19.4047H31.58C31.5213 18.3614 31.3284 17.353 31.0084 16.3976L38.4742 8.91259C39.4581 7.92618 40 6.61507 40 5.22052C40 2.34215 37.6639 0 34.7929 0C33.4019 0 32.0942 0.543332 31.111 1.52909L23.6529 9.00702C22.6884 8.68232 21.6658 8.49345 20.6097 8.43717C19.7194 6.87768 18.0465 5.82142 16.129 5.82142C15.6381 5.82142 15.1645 5.89515 14.7135 6.02387C13.6 3.92493 11.4368 2.5873 9.03226 2.5873C5.47484 2.5873 2.58065 5.48895 2.58065 9.05554C2.58065 9.551 2.64129 10.0387 2.75161 10.5161C1.16129 10.9986 0 12.4805 0 14.2301C0 16.3705 1.73613 18.1111 3.87097 18.1111H8.55097C8.44387 18.7508 8.3871 19.4002 8.3871 20.0515C8.3871 21.4752 8.64968 22.6337 9.07355 23.6233L3.31806 29.3943L0.115484 37.7422C0.0387097 37.9414 0 38.151 0 38.3651C0 39.3237 0.778065 40.1031 1.73355 40.1031C1.9471 40.1031 2.15613 40.0636 2.35548 39.9873L10.6819 36.7765L14.8903 32.5566C14.8587 32.6957 14.8387 32.8393 14.8387 32.988C14.8387 33.4867 15.0329 33.9376 15.3419 34.2817C15.0323 34.6258 14.8387 35.0766 14.8387 35.5753C14.8387 36.4744 15.4548 37.226 16.2839 37.4446C16.8335 39.0229 18.3058 40.1031 20 40.1031C21.6942 40.1031 23.1665 39.0229 23.7161 37.4446C24.5452 37.226 25.1613 36.4744 25.1613 35.5753C25.1613 35.5268 25.1503 35.4815 25.1471 35.4343L25.9484 36.2377L26.8884 35.2959C27.2439 34.9389 27.7748 34.8347 28.269 35.041C28.7323 35.2344 29.0323 35.6833 29.0323 36.1866V37.5158H32.9032V36.1866C32.9032 35.6833 33.2032 35.2338 33.6916 35.0313C34.16 34.836 34.6923 34.9389 35.0477 35.2959L35.9871 36.2377L38.7252 33.4925L37.7864 32.5508C37.431 32.1937 37.3271 31.6601 37.5329 31.1659C37.7245 30.7015 38.1723 30.4007 38.6742 30.4007H40V26.5198H38.6742C38.1723 26.5198 37.7245 26.219 37.5226 25.7294ZM27.8555 27.6362C28.5594 26.9473 29.2645 26.2436 29.8729 25.4299C30.2239 25.3018 30.589 25.2261 30.9677 25.2261C32.7465 25.2261 34.1935 26.677 34.1935 28.4603C34.1935 30.2436 32.7465 31.6944 30.9677 31.6944C29.189 31.6944 27.7419 30.2436 27.7419 28.4603C27.7419 28.1802 27.7852 27.9046 27.8555 27.6362ZM28.6303 12.3142L31.6129 9.32332L33.9264 11.6428L30.4806 15.0975C29.9974 14.0807 29.3729 13.1454 28.6303 12.3142ZM29.2994 5.17459L30.3226 4.14873L35.8619 9.70236L34.8387 10.7282L29.2994 5.17459ZM34.7929 1.29365C36.9523 1.29365 38.7097 3.0556 38.7097 5.22052C38.7097 6.26902 38.3026 7.25543 37.5626 7.99733L36.7742 8.78775L31.2348 3.23412L32.0232 2.4437C32.7632 1.70244 33.7465 1.29365 34.7929 1.29365ZM28.3871 6.0892L30.7006 8.40871L27.7194 11.3977C26.891 10.6525 25.9587 10.0258 24.9445 9.54066L28.3871 6.0892ZM30.3226 20.0515C30.3226 23.417 28.6323 25.0703 26.8426 26.8199C25.6103 28.0249 24.3445 29.2707 23.6077 31.0864C23.4845 31.0611 23.3568 31.0476 23.2258 31.0476H20.6452V27.8134C20.6452 26.7436 19.7768 25.873 18.7097 25.873H17.4194C17.0639 25.873 16.7742 25.5832 16.7742 25.2261C16.7742 24.8691 17.0639 24.5793 17.4194 24.5793H23.871C24.9381 24.5793 25.8064 23.7087 25.8064 22.6388C25.8064 21.569 24.9381 20.6984 23.871 20.6984H18.7097C18.3542 20.6984 18.0645 20.4086 18.0645 20.0515V18.1111H21.2903C23.069 18.1111 24.5161 16.6602 24.5161 14.877C24.5161 13.0937 23.069 11.6428 21.2903 11.6428C21.2723 11.6428 21.2555 11.648 21.2374 11.648C21.2652 11.432 21.2903 11.2159 21.2903 10.996C21.2903 10.573 21.2335 10.1635 21.1381 9.76963C26.2813 10.344 30.3226 14.7696 30.3226 20.0515ZM16.129 32.988C16.129 32.631 16.4187 32.3412 16.7742 32.3412H23.2258C23.5813 32.3412 23.871 32.631 23.871 32.988C23.871 33.3451 23.5813 33.6348 23.2258 33.6348H16.7742C16.4187 33.6348 16.129 33.3451 16.129 32.988ZM8.00903 32.988L12.7516 28.2332C13.5452 29.0223 14.2819 29.8205 14.8252 30.7927L10.3226 35.3075L8.00903 32.988ZM1.29032 14.2301C1.29032 12.8032 2.44774 11.6428 3.87097 11.6428C5.29419 11.6428 6.45161 12.8032 6.45161 14.2301H7.74194C7.74194 12.1461 6.09355 10.4449 4.03613 10.3576C3.92645 9.93457 3.87097 9.49796 3.87097 9.05554C3.87097 6.2024 6.18645 3.88094 9.03226 3.88094C10.9194 3.88094 12.6226 4.90939 13.5284 6.53357C12.1529 7.34275 11.1813 8.7677 11 10.4307C9.87355 10.7088 9.03226 11.7224 9.03226 12.9365H10.3226C10.3226 12.223 10.9013 11.6428 11.6129 11.6428C12.3245 11.6428 12.9032 12.223 12.9032 12.9365H14.1935C14.1935 11.7496 13.3884 10.758 12.3 10.454C12.5645 8.57042 14.1781 7.11506 16.129 7.11506C18.2639 7.11506 20 8.85567 20 10.996C20 11.3362 19.9445 11.6694 19.8581 11.9941C18.8 12.5251 18.0645 13.6118 18.0645 14.877H19.3548C19.3548 13.8071 20.2232 12.9365 21.2903 12.9365C22.3574 12.9365 23.2258 13.8071 23.2258 14.877C23.2258 15.9468 22.3574 16.8174 21.2903 16.8174H3.87097C2.44774 16.8174 1.29032 15.657 1.29032 14.2301ZM16.7742 18.1111V20.0515C16.7742 21.1214 17.6426 21.992 18.7097 21.992H23.871C24.2264 21.992 24.5161 22.2818 24.5161 22.6388C24.5161 22.9959 24.2264 23.2857 23.871 23.2857H17.4194C16.3523 23.2857 15.4839 24.1563 15.4839 25.2261C15.4839 26.296 16.3523 27.1666 17.4194 27.1666H18.7097C19.0652 27.1666 19.3548 27.4564 19.3548 27.8134V31.0476H16.7742C16.6432 31.0476 16.5155 31.0611 16.3923 31.0864C15.6555 29.2707 14.3897 28.0249 13.1574 26.8199C11.3677 25.0703 9.67742 23.417 9.67742 20.0515C9.67742 19.3976 9.75548 18.7495 9.87613 18.1111H16.7742ZM11.8303 27.3277L7.09677 32.0734L4.78323 29.7539L9.70581 24.8186C10.3116 25.7721 11.0626 26.5677 11.8303 27.3277ZM4.11677 30.915L9.16452 35.9757L4.89097 37.6238L2.4729 35.1995L4.11677 30.915ZM1.8929 38.7797C1.61355 38.8884 1.29032 38.6652 1.29032 38.3651C1.29032 38.3101 1.30065 38.2564 1.31935 38.206L1.96581 36.5203L3.5729 38.1316L1.8929 38.7797ZM20 38.8094C19.0471 38.8094 18.1974 38.301 17.7265 37.5158H22.2735C21.8026 38.301 20.9529 38.8094 20 38.8094ZM23.2258 36.2221H16.7742C16.4187 36.2221 16.129 35.9324 16.129 35.5753C16.129 35.2183 16.4187 34.9285 16.7742 34.9285H23.2258C23.5813 34.9285 23.871 35.2183 23.871 35.5753C23.871 35.9324 23.5813 36.2221 23.2258 36.2221ZM38.7097 29.1071H38.6742C37.6477 29.1071 36.7316 29.7216 36.3316 30.6931C35.9342 31.6485 36.1471 32.7364 36.8735 33.4654L36.9006 33.4925L35.9871 34.4085L35.96 34.3813C35.2323 33.6517 34.1458 33.4376 33.1735 33.8464C32.2258 34.2396 31.6129 35.1575 31.6129 36.1866V36.2221H30.3226V36.1866C30.3226 35.1575 29.7097 34.239 28.7406 33.8373C27.7865 33.4382 26.7013 33.6523 25.9748 34.3813L25.9477 34.4085L25.0735 33.532C25.1252 33.358 25.1613 33.1782 25.1613 32.988C25.1613 32.5288 24.9948 32.1122 24.7277 31.7791C25.129 30.6931 25.7581 29.8244 26.4903 29.0223C26.7677 31.2539 28.6677 32.988 30.9677 32.988C33.4581 32.988 35.4839 30.9564 35.4839 28.4603C35.4839 25.9642 33.4581 23.9325 30.9677 23.9325C30.9045 23.9325 30.8432 23.939 30.7806 23.9415C31.2174 23.0328 31.5174 21.9791 31.5929 20.6984H31.6129V20.7339C31.6129 21.763 32.2258 22.6822 33.1942 23.0826C34.1465 23.4823 35.2329 23.2688 35.96 22.5392L35.9871 22.5121L36.9006 23.428L36.8735 23.4551C36.1471 24.1841 35.9342 25.2727 36.34 26.2481C36.7316 27.199 37.6477 27.8134 38.6742 27.8134H38.7097V29.1071Z" fill="white"></path></svg>