<svg xmlns="http://www.w3.org/2000/svg" width="40" height="41" viewBox="0 0 40 41" fill="none"><path d="M39.6555 8.18792L31.8126 0.344627C31.592 0.123922 31.2927 0 30.9807 0H12.9412C10.9951 0 9.41177 1.58329 9.41177 3.52941V19.0461C4.12502 19.6333 0 24.1279 0 29.5686C0 35.407 4.74988 40.1569 10.5882 40.1569H36.4706C38.4167 40.1569 40 38.5736 40 36.6275V9.01984C40 8.70776 39.8761 8.40863 39.6555 8.18792ZM32.1569 4.01671L34.7129 6.57286L35.9832 7.84314H32.1569V4.01671ZM2.35294 29.5686C2.35294 25.0277 6.04729 21.3333 10.5882 21.3333C15.1292 21.3333 18.8235 25.0277 18.8235 29.5686C18.8235 34.1096 15.1292 37.8039 10.5882 37.8039C6.04729 37.8039 2.35294 34.1096 2.35294 29.5686ZM36.4706 37.8039H17.2352C19.35 36.0937 20.7951 33.5875 21.1108 30.7451H33.3333C33.9831 30.7451 34.5098 30.2184 34.5098 29.5686C34.5098 28.9189 33.9831 28.3922 33.3333 28.3922H21.1107C20.9189 26.6651 20.3104 25.062 19.3878 23.6863H33.3333C33.9831 23.6863 34.5098 23.1595 34.5098 22.5098C34.5098 21.8601 33.9831 21.3333 33.3333 21.3333H17.2352C15.7042 20.0952 13.8226 19.2747 11.7647 19.0461V3.52941C11.7647 2.88071 12.2925 2.35294 12.9412 2.35294H29.8039V9.01961C29.8039 9.66933 30.3307 10.1961 30.9804 10.1961H37.6471V36.6275C37.6471 37.2762 37.1193 37.8039 36.4706 37.8039Z" fill="white"></path><path d="M33.3332 14.2744H16.0783C15.4286 14.2744 14.9019 14.8012 14.9019 15.4509C14.9019 16.1006 15.4286 16.6274 16.0783 16.6274H33.3332C33.983 16.6274 34.5097 16.1006 34.5097 15.4509C34.5097 14.8012 33.983 14.2744 33.3332 14.2744Z" fill="white"></path><path d="M15.2631 26.6189C14.8037 26.1596 14.0588 26.1596 13.5993 26.6189L8.94107 31.2772L7.41997 29.7561C6.9606 29.2967 6.21566 29.2967 5.75621 29.7561C5.29676 30.2155 5.29676 30.9604 5.75621 31.4199L8.10915 33.7728C8.33888 34.0026 8.63997 34.1175 8.94107 34.1175C9.24217 34.1175 9.54327 34.0026 9.77292 33.7728L15.2631 28.2826C15.7226 27.8233 15.7226 27.0783 15.2631 26.6189Z" fill="white"></path></svg>