<svg xmlns="http://www.w3.org/2000/svg" width="129" height="73" viewBox="0 0 129 73" fill="none"><path d="M2 73C3.10457 73 4 72.1046 4 71C4 69.8954 3.10457 69 2 69C0.89543 69 0 69.8954 0 71C0 72.1046 0.89543 73 2 73Z" fill="#2143D4"></path><path d="M2 50C3.10457 50 4 49.1046 4 48C4 46.8954 3.10457 46 2 46C0.89543 46 0 46.8954 0 48C0 49.1046 0.89543 50 2 50Z" fill="#2143D4"></path><path d="M2 27C3.10457 27 4 26.1046 4 25C4 23.8954 3.10457 23 2 23C0.89543 23 0 23.8954 0 25C0 26.1046 0.89543 27 2 27Z" fill="#2143D4"></path><path d="M2 4C3.10457 4 4 3.10457 4 2C4 0.89543 3.10457 0 2 0C0.89543 0 0 0.89543 0 2C0 3.10457 0.89543 4 2 4Z" fill="#2143D4"></path><path d="M27 73C28.1046 73 29 72.1046 29 71C29 69.8954 28.1046 69 27 69C25.8954 69 25 69.8954 25 71C25 72.1046 25.8954 73 27 73Z" fill="#2143D4"></path><path d="M27 50C28.1046 50 29 49.1046 29 48C29 46.8954 28.1046 46 27 46C25.8954 46 25 46.8954 25 48C25 49.1046 25.8954 50 27 50Z" fill="#2143D4"></path><path d="M27 27C28.1046 27 29 26.1046 29 25C29 23.8954 28.1046 23 27 23C25.8954 23 25 23.8954 25 25C25 26.1046 25.8954 27 27 27Z" fill="#2143D4"></path><path d="M27 4C28.1046 4 29 3.10457 29 2C29 0.89543 28.1046 0 27 0C25.8954 0 25 0.89543 25 2C25 3.10457 25.8954 4 27 4Z" fill="#2143D4"></path><path d="M52 73C53.1046 73 54 72.1046 54 71C54 69.8954 53.1046 69 52 69C50.8954 69 50 69.8954 50 71C50 72.1046 50.8954 73 52 73Z" fill="#2143D4"></path><path d="M52 50C53.1046 50 54 49.1046 54 48C54 46.8954 53.1046 46 52 46C50.8954 46 50 46.8954 50 48C50 49.1046 50.8954 50 52 50Z" fill="#2143D4"></path><path d="M52 27C53.1046 27 54 26.1046 54 25C54 23.8954 53.1046 23 52 23C50.8954 23 50 23.8954 50 25C50 26.1046 50.8954 27 52 27Z" fill="#2143D4"></path><path d="M52 4C53.1046 4 54 3.10457 54 2C54 0.89543 53.1046 0 52 0C50.8954 0 50 0.89543 50 2C50 3.10457 50.8954 4 52 4Z" fill="#2143D4"></path><path d="M77 73C78.1046 73 79 72.1046 79 71C79 69.8954 78.1046 69 77 69C75.8954 69 75 69.8954 75 71C75 72.1046 75.8954 73 77 73Z" fill="#2143D4"></path><path d="M77 50C78.1046 50 79 49.1046 79 48C79 46.8954 78.1046 46 77 46C75.8954 46 75 46.8954 75 48C75 49.1046 75.8954 50 77 50Z" fill="#2143D4"></path><path d="M77 27C78.1046 27 79 26.1046 79 25C79 23.8954 78.1046 23 77 23C75.8954 23 75 23.8954 75 25C75 26.1046 75.8954 27 77 27Z" fill="#2143D4"></path><path d="M77 4C78.1046 4 79 3.10457 79 2C79 0.89543 78.1046 0 77 0C75.8954 0 75 0.89543 75 2C75 3.10457 75.8954 4 77 4Z" fill="#2143D4"></path><path d="M102 73C103.105 73 104 72.1046 104 71C104 69.8954 103.105 69 102 69C100.895 69 100 69.8954 100 71C100 72.1046 100.895 73 102 73Z" fill="#2143D4"></path><path d="M102 50C103.105 50 104 49.1046 104 48C104 46.8954 103.105 46 102 46C100.895 46 100 46.8954 100 48C100 49.1046 100.895 50 102 50Z" fill="#2143D4"></path><path d="M102 27C103.105 27 104 26.1046 104 25C104 23.8954 103.105 23 102 23C100.895 23 100 23.8954 100 25C100 26.1046 100.895 27 102 27Z" fill="#2143D4"></path><path d="M102 4C103.105 4 104 3.10457 104 2C104 0.89543 103.105 0 102 0C100.895 0 100 0.89543 100 2C100 3.10457 100.895 4 102 4Z" fill="#2143D4"></path><path d="M127 73C128.105 73 129 72.1046 129 71C129 69.8954 128.105 69 127 69C125.895 69 125 69.8954 125 71C125 72.1046 125.895 73 127 73Z" fill="#2143D4"></path><path d="M127 50C128.105 50 129 49.1046 129 48C129 46.8954 128.105 46 127 46C125.895 46 125 46.8954 125 48C125 49.1046 125.895 50 127 50Z" fill="#2143D4"></path><path d="M127 27C128.105 27 129 26.1046 129 25C129 23.8954 128.105 23 127 23C125.895 23 125 23.8954 125 25C125 26.1046 125.895 27 127 27Z" fill="#2143D4"></path><path d="M127 4C128.105 4 129 3.10457 129 2C129 0.89543 128.105 0 127 0C125.895 0 125 0.89543 125 2C125 3.10457 125.895 4 127 4Z" fill="#2143D4"></path></svg>