<svg xmlns="http://www.w3.org/2000/svg" width="40" height="40" viewBox="0 0 40 40" fill="none"><path d="M39.6149 16.0698C39.5051 15.5192 39.0219 15.1231 38.4611 15.1231H34.4915C34.2704 14.4659 34.0037 13.8235 33.6947 13.2015L36.501 10.3951C36.8979 9.99823 36.9591 9.37703 36.6477 8.91035C35.1708 6.6985 33.3017 4.82862 31.0906 3.35327C30.6239 3.04188 30.002 3.10306 29.6059 3.49994L26.7995 6.30633C26.1775 5.99729 25.5351 5.73062 24.8778 5.50943V1.53908C24.8778 0.978274 24.4817 0.495117 23.9311 0.385309C21.3546 -0.128436 18.6494 -0.128436 16.072 0.385309C15.5214 0.495117 15.1253 0.978274 15.1253 1.53908V5.50865C14.468 5.72983 13.8256 5.99651 13.2037 6.30554L10.3973 3.49916C10.0004 3.10228 9.37919 3.0411 8.91251 3.35248C6.70065 4.82862 4.83156 6.6985 3.35543 8.90956C3.04404 9.37625 3.10522 9.99823 3.5021 10.3943L6.30848 13.2007C5.99867 13.8227 5.73277 14.4651 5.51159 15.1224H1.54124C0.980431 15.1224 0.497274 15.5185 0.387466 16.0691C0.130201 17.3585 0 18.6809 0 19.9994C0 21.3179 0.130201 22.6395 0.386682 23.929C0.49649 24.4796 0.979646 24.8757 1.54045 24.8757H5.51002C5.7312 25.533 5.99788 26.1753 6.30691 26.7973L3.50053 29.6037C3.10365 30.0006 3.04247 30.6218 3.35386 31.0885C4.82921 33.2995 6.69909 35.1694 8.91094 36.6456C9.37762 36.9569 9.99961 36.8958 10.3957 36.4989L13.2021 33.6925C13.8241 34.0023 14.4664 34.2682 15.1237 34.4894V38.459C15.1237 39.0198 15.5198 39.5029 16.0704 39.6127C17.3591 39.8692 18.6807 39.9994 20 39.9994C21.3193 39.9994 22.6409 39.8692 23.9296 39.6127C24.4802 39.5029 24.8763 39.0198 24.8763 38.459V34.4894C25.5336 34.2682 26.1759 34.0015 26.7979 33.6925L29.6043 36.4989C30.0012 36.8958 30.6224 36.9569 31.0891 36.6456C33.3001 35.1702 35.17 33.3003 36.6461 31.0885C36.9575 30.6218 36.8963 29.9998 36.4995 29.6037L33.6931 26.7973C34.0021 26.1753 34.2688 25.533 34.49 24.8757H38.4595C39.0204 24.8757 39.5035 24.4796 39.6133 23.929C39.8698 22.6403 40 21.3187 40 19.9994C40 18.6801 39.8714 17.3585 39.6149 16.0698ZM37.4689 22.5219H33.6194C33.0884 22.5219 32.6225 22.878 32.4836 23.3909C32.1966 24.4498 31.773 25.471 31.2248 26.4263C30.9604 26.8875 31.0373 27.4679 31.413 27.8444L34.1355 30.5669C33.1205 31.9246 31.9252 33.1199 30.5675 34.1349L27.845 31.4124C27.4693 31.0367 26.8881 30.9591 26.4277 31.2242C25.4716 31.7724 24.4504 32.196 23.3923 32.483C22.8793 32.6219 22.5232 33.087 22.5232 33.6188V37.4683C20.8549 37.7068 19.1458 37.7076 17.4775 37.4683V33.6188C17.4775 33.0878 17.1215 32.6219 16.6085 32.483C15.5496 32.196 14.5284 31.7724 13.5731 31.2242C13.1119 30.9598 12.5315 31.0367 12.1558 31.4124L9.43331 34.1349C8.07561 33.1199 6.88027 31.9246 5.86533 30.5669L8.58857 27.8436C8.96427 27.4679 9.04192 26.8867 8.77681 26.4263C8.22856 25.4702 7.80501 24.449 7.51794 23.3909C7.37911 22.878 6.914 22.5219 6.38221 22.5219H2.53265C2.41343 21.6881 2.35303 20.8426 2.35303 19.9994C2.35303 19.1562 2.41343 18.3107 2.53265 17.4762H6.38221C6.91321 17.4762 7.37911 17.1201 7.51794 16.6071C7.80501 15.549 8.22856 14.5278 8.77681 13.5717C9.04114 13.1105 8.96427 12.5301 8.58857 12.1544L5.86611 9.43194C6.88105 8.07424 8.0764 6.8789 9.4341 5.86396L12.1566 8.58642C12.5323 8.96212 13.1135 9.03898 13.5739 8.77466C14.5292 8.2264 15.5504 7.80286 16.6093 7.51578C17.1222 7.37696 17.4783 6.91184 17.4783 6.38005V2.53128C19.1466 2.29205 20.8557 2.29283 22.524 2.53128V6.38084C22.524 6.91184 22.8801 7.37774 23.3931 7.51657C24.4519 7.80364 25.4732 8.22719 26.4285 8.77544C26.8889 9.03977 27.4701 8.9629 27.8458 8.5872L30.5683 5.86474C31.926 6.87968 33.1205 8.07502 34.1362 9.43272L31.4138 12.1552C31.0381 12.5309 30.9604 13.1121 31.2255 13.5733C31.7738 14.5286 32.1973 15.5498 32.4844 16.6087C32.6232 17.1217 33.0891 17.4777 33.6201 17.4777H37.4697C37.5889 18.3115 37.6493 19.157 37.6493 20.001C37.6493 20.8449 37.5881 21.6881 37.4689 22.5219ZM20.0008 10.6006C14.8186 10.6006 10.602 14.8172 10.602 19.9994C10.602 25.1816 14.8186 29.3982 20.0008 29.3982C25.1837 29.3982 29.3996 25.1816 29.3996 19.9994C29.3996 14.8172 25.1837 10.6006 20.0008 10.6006ZM20.0008 27.0452C16.1159 27.0452 12.955 23.8843 12.955 19.9994C12.955 16.1146 16.1159 12.9536 20.0008 12.9536C23.8856 12.9536 27.0465 16.1146 27.0465 19.9994C27.0465 23.8843 23.8856 27.0452 20.0008 27.0452Z" fill="white"></path></svg>