<svg xmlns="http://www.w3.org/2000/svg" width="277" height="45" viewBox="0 0 277 45" fill="none"><path d="M17.2 44.8H6.2C2.8 44.8 0 42 0 38.6V28.1L17.2 44.8Z" fill="url(#paint0_linear_2006_6108)"></path><path d="M45.2 44.8H26.1L0.400009 19.7L0 19.4H19.6L45.2 44.8Z" fill="#00A99D"></path><path d="M0 0H41.3C43.4 0 45.2 1.7 45.2 3.9V35.5L32.7 23.5V12.9H0V0Z" fill="url(#paint1_linear_2006_6108)"></path><path d="M68.45 41H62.05V4.45H76C84.3 4.45 89.15 8.65 89.15 15.85C89.15 20.75 86.85 24.25 82.55 26L89.5 41H82.5L76.3 27.35H68.45V41ZM68.45 10.15V21.7H76C80.05 21.7 82.45 19.55 82.45 15.85C82.45 12.2 80.05 10.15 76 10.15H68.45ZM92.9461 14.65C92.9461 8.25 98.2461 3.8 105.946 3.8C113.346 3.8 118.046 7.9 118.246 14.5H111.846C111.696 11.35 109.446 9.5 105.846 9.5C101.896 9.5 99.3461 11.4 99.3461 14.45C99.3461 17.05 100.746 18.5 103.796 19.2L109.546 20.45C115.796 21.8 118.846 25 118.846 30.45C118.846 37.25 113.546 41.65 105.496 41.65C97.6961 41.65 92.5961 37.5 92.4461 30.95H98.8461C98.8961 34.05 101.396 35.9 105.496 35.9C109.746 35.9 112.446 34.05 112.446 31C112.446 28.55 111.196 27.1 108.196 26.45L102.396 25.15C96.1961 23.8 92.9461 20.25 92.9461 14.65ZM120.448 10.35V4.45H148.248V10.35H137.548V41H131.148V10.35H120.448ZM157.84 41H151.74V3.8H157.89V19.5C159.44 17.1 162.34 15.55 165.89 15.55C171.99 15.55 175.19 19.4 175.19 25.8V41H169.09V27.25C169.09 23.1 167.04 21.1 163.94 21.1C160.09 21.1 157.84 23.8 157.84 27.5V41ZM191.733 41.65C184.383 41.65 179.233 36.3 179.233 28.65C179.233 20.9 184.283 15.55 191.533 15.55C198.933 15.55 203.633 20.5 203.633 28.2V30.05L185.033 30.1C185.483 34.45 187.783 36.65 191.833 36.65C195.183 36.65 197.383 35.35 198.083 33H203.733C202.683 38.4 198.183 41.65 191.733 41.65ZM191.583 20.55C187.983 20.55 185.783 22.5 185.183 26.2H197.583C197.583 22.8 195.233 20.55 191.583 20.55ZM214.115 41H208.015V16.3H213.615L214.115 19.2C215.365 17.15 217.865 15.55 221.415 15.55C225.165 15.55 227.765 17.4 229.065 20.25C230.315 17.4 233.215 15.55 236.965 15.55C242.965 15.55 246.265 19.15 246.265 24.85V41H240.215V26.45C240.215 22.9 238.315 21.05 235.415 21.05C232.465 21.05 230.215 22.95 230.215 27V41H224.115V26.4C224.115 22.95 222.265 21.1 219.365 21.1C216.465 21.1 214.115 23 214.115 27V41ZM262.804 41.65C255.454 41.65 250.304 36.3 250.304 28.65C250.304 20.9 255.354 15.55 262.604 15.55C270.004 15.55 274.704 20.5 274.704 28.2V30.05L256.104 30.1C256.554 34.45 258.854 36.65 262.904 36.65C266.254 36.65 268.454 35.35 269.154 33H274.804C273.754 38.4 269.254 41.65 262.804 41.65ZM262.654 20.55C259.054 20.55 256.854 22.5 256.254 26.2H268.654C268.654 22.8 266.304 20.55 262.654 20.55Z" fill="black"></path><defs><linearGradient id="paint0_linear_2006_6108" x1="9.9878" y1="35.1482" x2="-4.8083" y2="49.2453" gradientUnits="userSpaceOnUse"><stop stop-color="#034EA2"></stop><stop offset="1" stop-color="#00A99D"></stop></linearGradient><linearGradient id="paint1_linear_2006_6108" x1="36.3831" y1="-0.145402" x2="5.6258" y2="39.874" gradientUnits="userSpaceOnUse"><stop stop-color="#034EA2"></stop><stop offset="1" stop-color="#00A99D"></stop></linearGradient></defs></svg>