<svg xmlns="http://www.w3.org/2000/svg" width="60" height="75" viewBox="0 0 60 75" fill="none"><path d="M28.2371 1.65549C28.0123 2.37893 27.5627 5.67965 27.248 9.02559C26.9783 12.3715 26.2589 18.7921 25.7643 23.2232L24.7752 31.3168L21.583 27.5187C16.997 22.0928 12.7258 17.6165 12.0514 17.6165C10.5227 17.6165 12.0514 20.2842 18.4807 28.9203C23.2465 35.3861 24.5954 37.6017 23.9659 38.2347C23.7861 38.4156 19.8745 38.7321 15.2436 38.9129C6.74607 39.2294 4.40813 39.4555 1.75546 40.2694C0.0919251 40.812 -0.49256 41.9424 0.451608 42.8467C1.44074 43.8414 4.27324 44.2031 13.5351 44.5649C18.2559 44.7457 22.3024 44.9718 22.6171 45.1527C22.9318 45.3335 22.0776 46.7352 20.1892 49.0412C16.8172 53.201 13.8948 57.406 13.7599 58.3555C13.5351 59.6668 13.8049 60.1189 14.6591 60.1189C15.1986 60.1189 17.2668 58.1747 20.3691 54.6931L25.2248 49.222L25.4946 52.0706C25.6744 53.6531 25.8093 56.5921 25.8542 58.6268C25.8992 63.7814 27.1581 72.7792 27.9674 74.0001C28.7317 75.2209 29.7658 75.3565 30.3053 74.2261C30.5301 73.8192 30.8449 70.9254 31.0247 67.8056C31.2495 62.8319 32.7781 50.8046 33.1828 50.3524C33.2727 50.3072 35.251 52.7941 37.5889 55.9139C42.7144 62.7866 43.209 63.3292 44.1082 63.0127C45.412 62.4701 44.7376 60.6615 40.5563 53.2914L36.2851 45.8761L46.9407 45.6048C58.0009 45.3335 60.249 44.9718 59.9792 43.4797C59.6645 41.8067 54.0444 40.2242 45.0074 39.3199C42.3098 39.0486 39.2075 38.7321 38.1734 38.5964L36.2851 38.3704L40.2416 32.8541C45.9516 24.851 48.9189 20.3294 48.4693 20.3294C48.1097 20.3294 45.1872 23.2684 36.7796 32.0854C33.6324 35.3861 33.5425 35.4314 33.5425 34.1201C33.5425 33.3514 33.2278 29.0108 32.8681 24.3988C32.5084 19.7868 32.0138 12.9593 31.789 9.16123C31.5193 5.36314 31.1146 1.88156 30.8449 1.33898C30.1704 0.0277328 28.7767 0.208595 28.2371 1.65549ZM28.5519 29.3273L28.5968 35.8383L27.6527 34.9792C26.6186 34.0297 26.6186 34.7531 27.5178 24.6249C28.0123 19.2895 28.5069 21.6407 28.5519 29.3273Z" fill="#2143D4"></path></svg>