<svg xmlns="http://www.w3.org/2000/svg" width="40" height="37" viewBox="0 0 40 37" fill="none"><path d="M39.0216 24.0038C38.4419 23.4675 37.6955 23.1778 36.9353 23.1328C37.5397 21.5258 37.8466 19.8338 37.8466 18.0843C37.8466 14.9933 36.8836 12.0482 35.0616 9.56758C34.804 9.2168 34.3108 9.14133 33.9601 9.39898C33.6094 9.65664 33.534 10.1497 33.7916 10.5004C35.4136 12.7087 36.2709 15.3312 36.2709 18.0843C36.2709 20.0031 35.8575 21.8435 35.0441 23.5597C34.8261 23.6819 34.6202 23.8294 34.4321 24.0034L29.103 28.9248C29.0239 28.998 28.6629 29.2357 27.3321 29.2357C27.3237 29.2357 27.3153 29.2357 27.3069 29.2357C25.2148 29.23 22.031 29.2244 19.6259 29.22L18.4915 29.2181C17.8811 29.2181 17.3844 28.7866 17.3844 28.2564C17.3844 27.7339 17.8914 27.2924 18.4915 27.2924H23.5412C25.1524 27.2924 26.4632 26.0548 26.4632 24.5335C26.4632 24.3917 26.4517 24.2525 26.4297 24.1164C27.6852 23.5521 28.5287 22.2984 28.5287 20.8638C28.5287 18.8968 26.9388 17.2965 24.9846 17.2965H21.945C20.8475 17.2965 19.9546 16.4021 19.9546 15.3027C19.9546 14.2045 20.8475 13.3111 21.945 13.3111H23.4463H23.4482H27.7408C28.1759 13.3111 28.5287 12.9584 28.5287 12.5232C28.5287 12.0881 28.1759 11.7354 27.7408 11.7354H24.2381L24.2428 9.83883C24.2439 9.40359 23.892 9.05008 23.4568 9.04898C23.4562 9.04898 23.4555 9.04898 23.4549 9.04898C23.0207 9.04898 22.6682 9.40047 22.667 9.83484L22.6623 11.7354H21.9451C19.9787 11.7354 18.3789 13.3356 18.3789 15.3027C18.3789 17.271 19.9788 18.8722 21.9451 18.8722H24.9847C26.0516 18.8722 26.9529 19.7842 26.9529 20.8638C26.9529 21.6712 26.4469 22.3953 25.723 22.701C25.1875 22.1332 24.408 21.7746 23.5413 21.7746H11.1768C10.8185 20.5796 10.6369 19.341 10.6369 18.0844C10.6369 17.0847 10.7512 16.0992 10.9763 15.1419C11.0707 15.2038 11.1658 15.2635 11.2617 15.3209C11.6953 15.5806 12.031 15.7106 12.3672 15.7106C12.7032 15.7106 13.0394 15.5808 13.4743 15.3213C15.0316 14.3906 16.3976 12.8443 17.5346 10.7253C18.3629 9.1807 18.8768 7.58312 19.0508 6.04007C20.4586 5.52335 21.9377 5.26085 23.455 5.26085C25.266 5.26085 27.0151 5.63069 28.6537 6.35999C28.7578 6.40632 28.8665 6.42827 28.9736 6.42827C29.2753 6.42827 29.5632 6.25398 29.6938 5.96054C29.8707 5.56304 29.6919 5.09733 29.2944 4.92038C27.4528 4.10077 25.4881 3.68522 23.455 3.68522C21.9591 3.68522 20.4959 3.91272 19.0904 4.36108C18.9792 3.50491 18.5368 3.22046 17.8705 2.86186L12.7424 0.0945119C12.5089 -0.031504 12.2276 -0.031504 11.9941 0.0945119L6.86314 2.86319C6.09657 3.27577 5.62634 3.58952 5.61642 4.78952C5.60001 6.71054 6.14759 8.76312 7.19986 10.7254C7.92119 12.0698 8.73572 13.1829 9.63322 14.0557C9.25369 15.3563 9.06103 16.7089 9.06103 18.0843C9.06103 19.4056 9.23978 20.7093 9.59314 21.9719C8.91775 22.1466 8.27822 22.4335 7.70603 22.8173C7.4533 21.5997 6.31673 20.6782 4.95642 20.6782H2.80243C1.25719 20.6782 0 21.8671 0 23.3286V33.8372C0 35.2975 1.25719 36.4854 2.80243 36.4854H4.95642C6.50165 36.4854 7.75884 35.2975 7.75884 33.8372V33.8205L12.752 36.0599C12.7687 36.0674 12.7857 36.0743 12.8029 36.0805C14.3502 36.6486 16.3252 36.6873 21.8115 36.7157C25.9651 36.7201 26.5076 36.7201 27.2958 36.7201C29.2794 36.7201 30.2938 36.5404 31.4241 35.4281C33.7757 33.2543 36.1274 31.0823 38.4808 28.9088L39.0208 28.41C39.6523 27.8275 40 27.0449 40 26.2065C40.0001 25.3682 39.6523 24.5856 39.0216 24.0038ZM6.18314 33.8372C6.18314 34.4286 5.6329 34.9097 4.95649 34.9097H2.80243C2.12602 34.9097 1.57578 34.4286 1.57578 33.8372V23.3286C1.57578 22.746 2.1375 22.2539 2.80243 22.2539H4.95642C5.62134 22.2539 6.18306 22.7461 6.18306 23.3286L6.18314 33.8372ZM8.58853 9.98047C7.66087 8.2507 7.17798 6.46031 7.1922 4.80265C7.19384 4.60155 7.20876 4.51265 7.21689 4.47874C7.27994 4.42835 7.45447 4.33436 7.61001 4.25061L12.3683 1.68295L17.1043 4.23866L17.1237 4.24913C17.2794 4.33296 17.4542 4.42702 17.5175 4.47765C17.5257 4.51179 17.5405 4.60132 17.5421 4.8039C17.5583 6.45687 17.0754 8.24687 16.1458 9.98031C15.1457 11.8443 13.9749 13.1861 12.6663 13.9683C12.4918 14.0724 12.4074 14.1127 12.3676 14.1281C12.3281 14.1126 12.2442 14.0724 12.0714 13.969C12.0711 13.9688 12.071 13.9687 12.0707 13.9686C10.7779 13.1959 9.57377 11.8168 8.58853 9.98047ZM37.9521 27.2523L37.4118 27.7513C35.0551 29.9279 32.7002 32.1028 30.3453 34.2797C30.3388 34.2856 30.3325 34.2916 30.3263 34.2978C29.6625 34.9537 29.1843 35.1444 27.296 35.1444C26.5079 35.1444 25.9657 35.1444 21.8165 35.14C16.7951 35.114 14.6871 35.0843 13.3708 34.6103L7.759 32.0934V24.8444C8.59127 23.9046 9.83643 23.3502 11.1419 23.3502H23.5414C24.0576 23.3502 24.5063 23.6073 24.7321 23.9832C24.7364 23.991 24.7404 23.999 24.745 24.0067C24.8354 24.1656 24.8876 24.3441 24.8876 24.5335C24.8876 25.1859 24.2836 25.7166 23.5414 25.7166H18.4917C17.0123 25.7166 15.8088 26.8559 15.8088 28.2563C15.8088 29.6554 17.0124 30.7937 18.4903 30.7937L19.6232 30.7957C22.0278 30.8 25.2111 30.8057 27.3031 30.8114C27.3127 30.8114 27.3221 30.8114 27.3316 30.8114C28.7315 30.8114 29.6351 30.5792 30.1727 30.0818L35.5018 25.1605C36.1658 24.5464 37.2877 24.5463 37.9526 25.1612C38.2569 25.442 38.4245 25.8132 38.4245 26.2065C38.4243 26.6 38.2567 26.9712 37.9521 27.2523Z" fill="white"></path><path d="M32.0067 8.28581C32.2083 8.28581 32.41 8.20894 32.5638 8.05511C32.8715 7.74738 32.8715 7.24855 32.5638 6.94081L32.5616 6.93862C32.254 6.63112 31.7561 6.63206 31.4485 6.9398C31.1408 7.24745 31.1419 7.74738 31.4496 8.05519C31.6034 8.20894 31.8051 8.28581 32.0067 8.28581Z" fill="white"></path><path d="M12.0229 9.71001C12.2281 9.71001 12.4329 9.63032 12.5872 9.47211L15.3677 6.61961C15.6714 6.30797 15.6651 5.80914 15.3534 5.50547C15.0418 5.20171 14.543 5.20804 14.2393 5.51968L11.9978 7.8193L11.2199 7.09117C10.9022 6.79383 10.4037 6.81016 10.1062 7.12805C9.80887 7.4457 9.82535 7.9443 10.143 8.24164L11.4846 9.49743C11.6364 9.63946 11.8298 9.71001 12.0229 9.71001Z" fill="white"></path></svg>