<svg xmlns="http://www.w3.org/2000/svg" width="40" height="27" viewBox="0 0 40 27" fill="none"><path d="M2.00391 0C0.90744 0 0 0.90095 0 1.99742V20.6641C0 21.7605 0.90744 22.6615 2.00391 22.6615H17.3333V15.9974H1.33464V1.99742C1.33464 1.61654 1.62303 1.33335 2.00391 1.33335H27.3385C27.7194 1.33335 28.0026 1.61654 28.0026 1.99742V2.66148H29.3359V1.99742C29.3359 0.90095 28.435 0 27.3385 0H2.00391ZM20.6693 3.99483C19.5728 3.99483 18.6667 4.90227 18.6667 5.99871V24.6654C18.6667 25.7618 19.5728 26.6628 20.6693 26.6628H30.0247C29.5992 26.1034 29.3359 25.4159 29.3359 24.6654V21.3307H20V6.66408H33.3372V10.6641H34.6706V5.99871C34.6706 4.90224 33.7644 3.99483 32.668 3.99483H20.6693ZM3.32683 5.31904C3.23883 5.32006 3.15192 5.33847 3.07108 5.37325C2.99025 5.40802 2.9171 5.45847 2.85585 5.52165C2.7946 5.58484 2.74647 5.65954 2.71422 5.74142C2.68198 5.8233 2.66626 5.91073 2.66797 5.99871V7.33206C2.66598 7.42087 2.68175 7.50918 2.71436 7.59181C2.74696 7.67444 2.79575 7.74968 2.85785 7.81319C2.91996 7.87671 2.99412 7.92722 3.076 7.96168C3.15788 7.99613 3.24581 8.01381 3.33464 8.01381C3.42347 8.01381 3.5114 7.99613 3.59328 7.96168C3.67516 7.92722 3.74932 7.87671 3.81143 7.81319C3.87353 7.74968 3.92232 7.67444 3.95492 7.59181C3.98753 7.50918 4.0033 7.42087 4.00131 7.33206V5.99871C4.00305 5.90941 3.98683 5.82071 3.95362 5.7378C3.9204 5.6549 3.87087 5.57951 3.80796 5.51612C3.74505 5.45272 3.67004 5.40256 3.58739 5.36871C3.50474 5.33486 3.41613 5.31798 3.32683 5.31904ZM3.32683 9.32033C3.23883 9.32135 3.15192 9.33976 3.07108 9.37454C2.99025 9.40932 2.9171 9.45976 2.85585 9.52295C2.7946 9.58613 2.74647 9.66083 2.71422 9.74271C2.68198 9.82459 2.66626 9.91202 2.66797 10V13.9948C2.66598 14.0836 2.68175 14.172 2.71436 14.2546C2.74696 14.3372 2.79575 14.4124 2.85785 14.476C2.91996 14.5395 2.99412 14.59 3.076 14.6244C3.15788 14.6589 3.24581 14.6767 3.33464 14.6767C3.42347 14.6767 3.5114 14.6589 3.59328 14.6244C3.67516 14.59 3.74932 14.5395 3.81143 14.476C3.87353 14.4124 3.92232 14.3372 3.95492 14.2546C3.98753 14.172 4.0033 14.0836 4.00131 13.9948V10C4.00305 9.9107 3.98683 9.822 3.95362 9.7391C3.9204 9.65619 3.87087 9.5808 3.80796 9.51741C3.74505 9.45401 3.67004 9.40385 3.58739 9.37C3.50474 9.33615 3.41613 9.31927 3.32683 9.32033ZM21.9935 9.32033C21.9055 9.32135 21.8186 9.33976 21.7377 9.37454C21.6569 9.40932 21.5838 9.45976 21.5225 9.52295C21.4613 9.58613 21.4131 9.66083 21.3809 9.74271C21.3486 9.82459 21.3329 9.91202 21.3346 10V11.3334C21.3327 11.4221 21.3485 11.5104 21.3812 11.5929C21.4138 11.6755 21.4626 11.7507 21.5247 11.8142C21.5868 11.8776 21.661 11.928 21.7428 11.9624C21.8246 11.9968 21.9125 12.0146 22.0013 12.0146C22.0901 12.0146 22.178 11.9968 22.2598 11.9624C22.3417 11.928 22.4158 11.8776 22.4779 11.8142C22.54 11.7507 22.5888 11.6755 22.6214 11.5929C22.6541 11.5104 22.6699 11.4221 22.668 11.3334V10C22.6697 9.9107 22.6535 9.822 22.6203 9.7391C22.5871 9.65619 22.5375 9.5808 22.4746 9.51741C22.4117 9.45401 22.3367 9.40385 22.2541 9.37C22.1714 9.33615 22.0828 9.31927 21.9935 9.32033ZM32.668 11.9974C31.5715 11.9974 30.6693 12.8984 30.6693 13.9948V24.6654C30.6693 25.7618 31.5715 26.6628 32.668 26.6628H38.0026C39.0991 26.6628 40 25.7618 40 24.6654V13.9948C40 12.8984 39.0991 11.9974 38.0026 11.9974H32.668ZM21.9935 13.3216C21.8169 13.3237 21.6484 13.3958 21.5248 13.522C21.4013 13.6482 21.3329 13.8182 21.3346 13.9948V17.9961C21.3327 18.0849 21.3485 18.1732 21.3812 18.2557C21.4138 18.3383 21.4626 18.4135 21.5247 18.4769C21.5868 18.5404 21.661 18.5908 21.7428 18.6252C21.8246 18.6596 21.9125 18.6773 22.0013 18.6773C22.0901 18.6773 22.178 18.6596 22.2598 18.6252C22.3417 18.5908 22.4158 18.5404 22.4779 18.4769C22.54 18.4135 22.5888 18.3383 22.6214 18.2557C22.6541 18.1732 22.6699 18.0849 22.668 17.9961V13.9948C22.6688 13.9061 22.652 13.818 22.6184 13.7359C22.5848 13.6537 22.5351 13.5791 22.4723 13.5164C22.4094 13.4537 22.3347 13.4042 22.2525 13.3708C22.1703 13.3373 22.0822 13.3206 21.9935 13.3216ZM32.0039 14.6654H38.6667V23.9948H32.0039V14.6654ZM13.9701 18.6654H15.3359C16.225 18.6654 16.225 20 15.3359 20H14.0013C13.1122 20.0426 13.049 18.7081 13.9701 18.6654ZM26.0052 22.6615H27.3385C27.5128 22.6653 27.6787 22.7372 27.8006 22.8618C27.9225 22.9864 27.9908 23.1538 27.9908 23.3282C27.9908 23.5025 27.9225 23.6698 27.8006 23.7944C27.6787 23.9191 27.5128 23.991 27.3385 23.9948H26.0052C25.8309 23.991 25.6651 23.9191 25.5432 23.7944C25.4213 23.6698 25.353 23.5025 25.353 23.3282C25.353 23.1538 25.4213 22.9864 25.5432 22.8618C25.6651 22.7372 25.8309 22.6653 26.0052 22.6615ZM10.8828 23.9948C10.6483 24.4114 10.2967 24.8641 9.75521 25.3294H8.66667C8.57789 25.3275 8.48963 25.3433 8.40705 25.3759C8.32447 25.4086 8.24924 25.4574 8.18577 25.5195C8.1223 25.5816 8.07187 25.6557 8.03745 25.7376C8.00302 25.8194 7.98529 25.9073 7.98529 25.9961C7.98529 26.0849 8.00302 26.1728 8.03745 26.2547C8.07187 26.3365 8.1223 26.4107 8.18577 26.4728C8.24924 26.5349 8.32447 26.5836 8.40705 26.6162C8.48963 26.6489 8.57789 26.6647 8.66667 26.6628H18.0234C17.5975 26.1037 17.3333 25.4167 17.3333 24.6654V23.9948H10.8828Z" fill="white"></path></svg>