<svg xmlns="http://www.w3.org/2000/svg" width="40" height="40" viewBox="0 0 40 40" fill="none"><path d="M37.5438 16.9725C37.3875 12.5085 35.5844 8.33408 32.4183 5.1598C29.0997 1.83205 24.6892 0 20 0C10.5291 0 2.79045 7.55778 2.45687 16.9725C1.01158 17.6165 0 19.0668 0 20.7524V25.3962C0 27.6765 1.8503 29.5322 4.12539 29.5322C5.59747 29.5322 6.79466 28.3319 6.79466 26.856V19.2919C6.79466 17.9062 5.7346 16.7762 4.3869 16.6419C4.8844 8.43959 11.695 1.91838 20 1.91838C24.179 1.91838 28.1086 3.55156 31.0661 6.51674C33.7819 9.23956 35.3714 12.7886 35.6105 16.6426C34.2641 16.7782 33.206 17.9074 33.206 19.2919V26.8554C33.206 28.2526 34.2826 29.3896 35.6463 29.5079V31.4192C35.6463 33.5717 33.8993 35.3225 31.7524 35.3225H28.8688C28.7272 34.9171 28.5053 34.5424 28.194 34.2316C27.6487 33.6823 26.9216 33.3798 26.1473 33.3798H23.175C22.7484 33.3798 22.3389 33.4706 21.9638 33.6458C20.9408 34.1171 20.28 35.1518 20.28 36.2817C20.28 37.058 20.5817 37.787 21.1283 38.3324C21.6749 38.8817 22.402 39.1842 23.175 39.1842H26.1473C27.3795 39.1842 28.4657 38.3855 28.8707 37.2409H31.7524C34.9549 37.2409 37.5597 34.6293 37.5597 31.4192V29.1664C38.9961 28.5186 40 27.0735 40 25.3949V20.7511C40 19.0668 38.9884 17.6165 37.5438 16.9725ZM4.88057 19.2919V26.8554C4.88057 27.273 4.54189 27.6132 4.12476 27.6132C2.90525 27.6132 1.91281 26.6182 1.91281 25.3955V20.7518C1.91281 19.5285 2.90525 18.5341 4.12476 18.5341C4.54189 18.5341 4.88057 18.8743 4.88057 19.2919ZM27.1072 36.4876C27.0122 36.939 26.6078 37.2671 26.1466 37.2671H23.1744C22.9129 37.2671 22.6673 37.1648 22.4798 36.9768C22.2949 36.792 22.1928 36.5451 22.1928 36.283C22.1928 35.8999 22.4167 35.5501 22.7675 35.3884C22.8925 35.3295 23.0296 35.2995 23.1744 35.2995H26.1466C26.4081 35.2995 26.6537 35.4011 26.8406 35.5891C27.0255 35.774 27.1276 36.0208 27.1276 36.283C27.1282 36.3533 27.1206 36.4236 27.1072 36.4876ZM38.0866 25.3955C38.0866 26.6182 37.0941 27.6132 35.8746 27.6132C35.4581 27.6132 35.1188 27.2736 35.1188 26.8554V19.2919C35.1188 18.8743 35.4575 18.5341 35.8746 18.5341C37.0941 18.5341 38.0866 19.5291 38.0866 20.7518V25.3955Z" fill="white"></path><path d="M26.1952 25.7259C28.4307 25.7259 30.2491 23.9022 30.2491 21.6615V13.3798C30.2491 12.2966 29.8269 11.276 29.0602 10.5074C28.2936 9.73875 27.2763 9.31543 26.1952 9.31543H13.8049C11.5694 9.31543 9.75098 11.1385 9.75098 13.3798V21.6615C9.75098 23.9028 11.5694 25.7259 13.8049 25.7259H13.8808V27.8719C13.8808 28.6904 14.3675 29.4169 15.1201 29.7232C15.3631 29.821 15.6157 29.8696 15.8657 29.8696C16.3868 29.8696 16.8945 29.6624 17.2664 29.2768L20.8273 25.7259H26.1952ZM19.7589 24.0863L15.9053 27.9288C15.888 27.9467 15.8753 27.9602 15.8389 27.9442C15.7949 27.9263 15.7949 27.8975 15.7949 27.8719V24.7667C15.7949 24.2372 15.3669 23.8075 14.8382 23.8075H13.8056C12.625 23.8075 11.6651 22.8445 11.6651 21.6615V13.3798C11.6651 12.1962 12.625 11.2338 13.8056 11.2338H26.1958C26.766 11.2338 27.3024 11.4576 27.7081 11.8637C28.1137 12.2704 28.3363 12.8088 28.3363 13.3798V21.6615C28.3363 22.8451 27.3757 23.8075 26.1958 23.8075H20.4338C20.1805 23.8075 19.9382 23.9079 19.7589 24.0863Z" fill="white"></path><path d="M15.3524 16.2588C14.5743 16.2588 13.9409 16.8944 13.9409 17.6739C13.9409 18.4534 14.5749 19.089 15.3524 19.089C16.1312 19.089 16.7652 18.4534 16.7652 17.6739C16.7652 16.8944 16.1318 16.2588 15.3524 16.2588Z" fill="white"></path><path d="M19.9994 16.2588C19.2212 16.2588 18.5879 16.8944 18.5879 17.6739C18.5879 18.4534 19.2219 19.089 19.9994 19.089C20.7788 19.089 21.4121 18.4534 21.4121 17.6739C21.4121 16.8944 20.7788 16.2588 19.9994 16.2588Z" fill="white"></path><path d="M24.6464 16.2588C23.8682 16.2588 23.2349 16.8944 23.2349 17.6739C23.2349 18.4534 23.8689 19.089 24.6464 19.089C25.4251 19.089 26.0591 18.4534 26.0591 17.6739C26.0591 16.8944 25.4251 16.2588 24.6464 16.2588Z" fill="white"></path></svg>