<svg xmlns="http://www.w3.org/2000/svg" width="38" height="38" viewBox="0 0 38 38" fill="none"><path d="M29.754 14.1755L16.321 27.5738L8.265 19.5385L10.944 16.8664L16.321 22.2296L27.075 11.5034L29.754 14.1755ZM3.8 18.8563C3.8 14.4408 5.738 10.48 8.778 7.71312L13.3 12.2235V0.852802H1.9L6.08 5.02206C2.356 8.47117 0 13.3795 0 18.8563C0 28.692 7.505 36.7653 17.1 37.7129V33.8846C9.614 32.9562 3.8 26.5694 3.8 18.8563ZM38 18.8563C38 9.02075 30.495 0.947558 20.9 0V3.82813C28.386 4.75674 34.2 11.1433 34.2 18.8563C34.2 23.2719 32.262 27.2327 29.222 29.9996L24.7 25.4892V36.8599H36.1L31.92 32.6906C35.644 29.2415 38 24.3332 38 18.8563Z" fill="white"></path></svg>