<svg xmlns="http://www.w3.org/2000/svg" width="106" height="41" viewBox="0 0 106 41" fill="none"><path d="M96.9872 0.821434C95.889 2.03838 95.6239 2.87503 93.1246 12.6486C91.9128 17.4403 90.8524 21.4334 90.7388 21.5095C90.4737 21.7757 90.2086 19.7601 89.7163 14.6261C88.959 6.67797 88.3531 4.58636 86.4596 3.06518C84.9449 1.88626 83.3922 2.03838 81.9911 3.52153C80.8172 4.7765 78.2042 10.8992 74.9853 19.9503C74.1522 22.2701 73.3948 23.8673 73.2812 23.5631C73.1676 23.2588 72.8268 21.2813 72.486 19.1897C71.5014 12.8768 70.5168 10.7852 68.1689 10.0626C66.9192 9.6823 64.685 10.7852 63.6246 12.3444C63.1324 13.105 61.8827 16.1093 60.8602 19.1136C59.8756 22.0799 58.9289 24.742 58.8153 25.0462C58.4745 26.073 57.9443 24.8941 56.3917 19.4178C55.5207 16.3755 54.4982 13.2951 54.1195 12.4965C52.6427 9.64427 50.219 8.7696 47.8333 10.2147C46.3564 11.1274 45.334 13.3331 44.1221 18.1629C43.592 20.2545 43.0239 22.3461 42.8346 22.8025C42.5317 23.6391 42.4938 23.6391 42.0772 22.5743C41.85 21.9658 41.1684 19.7221 40.5246 17.5924C39.1992 13.2951 37.9874 11.7739 35.8667 11.7739C33.481 11.7739 32.0041 14.5501 30.0349 22.9546C29.6562 24.5518 29.2775 25.8448 29.1639 25.8448C29.0124 25.8448 28.3687 23.5631 27.6492 20.7869C26.9675 18.0488 26.0587 15.1205 25.68 14.3599C24.0516 11.1274 21.2114 11.5457 20.1132 15.1966C19.886 15.9191 19.2422 19.608 18.7121 23.3349C18.1819 27.0998 17.7275 30.2182 17.6518 30.2562C17.5003 30.4084 14.1299 20.7108 13.4483 18.2009C11.9335 12.6866 8.63894 11.5838 7.57861 16.2614C7.3514 17.2502 6.82123 20.7108 6.36681 23.9433C5.95025 27.1758 5.57156 29.8759 5.49582 29.914C5.38222 30.0281 4.81418 27.4421 2.9586 18.6953C2.54204 16.7558 2.16335 14.2078 2.04975 13.0289C1.8604 10.7091 1.48171 10.0246 0.572859 10.3668C-0.18452 10.6711 -0.18452 12.0021 0.53499 17.7445C1.14089 22.4222 3.67811 34.4014 4.81418 38.0142C5.45795 40.1059 6.36681 40.8665 7.23779 39.9918C7.42714 39.8016 7.76796 37.2537 7.9573 34.3634C8.22239 29.7999 8.82829 25.2363 9.66141 21.1292C9.85075 20.2925 10.5703 22.0799 13.1832 29.8759C15.8719 37.9382 16.6293 39.8016 17.4245 40.4101C19.6588 42.0454 20.9085 40.296 21.325 34.9719C21.628 31.0549 22.6883 22.6884 22.8777 22.4982C22.9534 22.3841 23.1427 22.8405 23.2564 23.4109C23.9001 26.3772 27.7628 39.4213 28.1036 39.8777C28.8231 40.7524 30.3378 41.1327 31.2467 40.6383C32.4964 39.9918 32.8372 38.8129 33.481 33.0704C34.049 27.9745 34.9957 22.7264 35.5638 21.6996C35.7531 21.3573 35.9046 21.5475 36.0561 22.3461C36.3969 24.0574 40.1459 34.2493 40.7897 35.2761C42.0772 37.2917 44.8795 37.0255 45.902 34.8578C46.2428 34.1733 46.6972 32.4239 46.9244 30.9788C47.6061 26.8716 48.4392 22.8025 49.083 20.5207L49.6889 18.4671L51.4309 23.5631C54.6876 32.9944 56.2402 35.3522 59.0425 35.3522C61.7691 35.3522 62.943 33.6028 64.382 27.404C65.3288 23.2968 66.2376 20.4066 66.5406 20.7108C66.6542 20.8249 67.1465 22.7644 67.6009 25.0082C69.4565 34.3634 70.8576 37.2537 73.5463 37.2537C76.0835 37.2537 76.6137 36.3409 78.6965 28.5069C81.2716 18.9615 83.6195 12.1542 83.6573 14.0557C83.6952 15.6149 84.907 22.6503 85.7401 26.111C87.4063 33.0324 88.959 35.162 91.7991 34.2113C93.9198 33.4887 94.5636 32.0436 95.7754 24.8941C96.2298 22.3841 96.8736 19.1136 97.2523 17.6685C98.0475 14.5881 98.0097 14.398 98.9942 22.232C100.206 31.5492 101.531 34.9719 103.917 34.9719C105.28 34.9719 106 33.6028 106 31.0168C106 27.6702 104.182 11.812 103.311 7.43856C102.478 3.36941 101.494 1.01159 100.358 0.365086C99.1457 -0.243385 97.8582 -0.0912704 96.9872 0.821434Z" fill="#F86F64"></path></svg>